<mxfile host="app.diagrams.net" modified="2022-07-01T09:18:11.398Z" agent="5.0 (Windows NT 10.0; Win64; x64) AppleWebKit/537.36 (KHTML, like Gecko) Chrome/102.0.0.0 Safari/537.36" etag="SfuHvOXZvYTBd29acpbK" version="20.0.4" type="github">
  <diagram id="fUXSdgkY0bwy1oJPe7zZ" name="第 1 页">
    <mxGraphModel dx="1422" dy="786" grid="1" gridSize="10" guides="1" tooltips="1" connect="1" arrows="1" fold="1" page="1" pageScale="1" pageWidth="827" pageHeight="1169" math="0" shadow="0">
      <root>
        <mxCell id="0" />
        <mxCell id="1" parent="0" />
        <mxCell id="H78yyhmrJmABQ--HX3Pv-1" value="" style="shape=image;verticalLabelPosition=bottom;labelBackgroundColor=default;verticalAlign=top;aspect=fixed;imageAspect=0;image=data:image/png,iVBORw0KGgoAAAANSUhEUgAAAQQAAADVCAYAAACxHY40AAAgAElEQVR4nO19WbNkxZHmFzI99UitBSSxSyBKUMVW7EhqoRbabUaP909y36bNptVSq9HKWkBtVLEVCASIpWlt0/MwPWYxDzc9r6ene4THds7JW+Vm126eiPCIOCdPfOnh4UuIMUZ0orC/v3H9X3t7AADPALk2Vr0s97Y7KuNPMYfW/neFfwlzSM3tdrG+4mp99aTQCggcBP5LmeAuL4TSfnd1/JFjXC78I+dg1R9na68XODQBQtjfx//b2zuSC2GqOeTqPxcC/kP5ijzjXx0CPsp8vSMWwrUh4I8xbpVfFwLeddxL6Rx2nT9X5xnjxP4+Luzt4XimnxxVAQJJBbsMBkuVTD4XAv60+koigM8rgFAy/hcSoCBLvxhCZsaH9L6y4Hm/14WA99h9XH8FDIr4PfWy7sRqXbZIC8WAQFKBNiGiowoGU0gmBAhULwEhNYerCxb0h06Q+FIIeL9gIV/rmMO7GTDxjJOqm3sxj35Pc/3fsb+Pl/b2cCLTv0ZuQOghFXjaHHUw8GwRPPRxwaLy1mv3eI0CCC2SwfUh4B0nGM0hou86GBDdUSktfNLTaE6pQKs7ymAgtwefDwEfKwtS64vKrG3CF0JwSwYjF+Oc4y8ZTHr2f361XsP+fhEofCLXYO4tQkxc58p7zaGmXe/6kvE/ihFfEJKGBQbeZ+wdGziQEq5f/QFYf77ekH52BQy871/NM/SMXdPu/N4ewv4+zmfGJUpuGeYGg5p2PeunnIOlPLyKSQi58SUI5OgDx1bgmtWJQWpcfq1tEbjO4AaxZdglMBjB76nvMce7nJKCuWW4nMGg1/glc2g5SeAktwpzi/hW3RJE9Ln5p+if6s6tJIUcKCR1CDVfUmv9UQGD2vrPK7/yV4myf89IDLkxRi8EuTW4QVxPtRB79LGrYGDxnwNwV2I+6pYh7O+rVoepCXjrU23mXoxLHP/qENYAkOPnysRe93it2DKU8u/qFmHkHEb3n+K/e38fZ/f2TFDYUiqOBINotJHlVrtec/CU7/L4nmdcM8blxD/Xezr6Hs/u7eFu4RPByXXsmJpAa/1UC3EJcxg9vnfc1pdMK7NOEIDtLQPR25eR5aKnfkrp5yyAu5XyjS2DJR0sfSGMHn/OOdCWwdP/F5WjRe89XlN4QgFg4zTB6veGEPCHSkWnVb5r/FP0X9rHPfv7OLO3twUKa0C4AgZjxvf2LRWHHuL6ghYwGLmQbmSAMEIyKS0/amDQwn+PcupgbhmuiOjTji8Vh6VjLBEMAHQDg10Ek9H995jfGQD3sGsVEOZeiEuYw66Ov4SFcNT4a/oo5VvCPQKrLQPfLuzqQljSHJYCBrv4q7rr/J76uefIy0+KbcMnrYYlA5RObKkLcQlzWAoYXAGT5X1HPfrIzX1th7CrC6Hn+LkvYqnPYO6FoPFbAOEtX8I9lPCP7l8+o9JnnJrDaVaW9XZc6kL4FNPKl47/mYwprWd8We/5cq4KQW13tVHumcPcC+EKmIzvfyowAYCAxx+P/7ezZaL3BkrG+FQI+N9Mk07XtXP4TAj4i/N83xu0BDh0UrLGl6bIubiHJV/+EhbzLvPX9FHKN/c9au3uZXqE7seOo9G2pu+/Nxa0lBQA4M+Ksc2flAVrBT/Vxo/YDG8mQ52R23JvT8WjACY3r57NGxXHqreueF8TvMdW5a86DKta3tMI4MRqrAsVEa6mesacuh47jgaDT4mF9GllQf9V+ZL/UmAi66338vHrlGQgYxlQjRb4lOIYfEmpe7/w3L/1JbsxhLUJ8k1sPm/HuHH9VqWD0xsx4pYKb8lbQ1gDwTH22RqnpLyE70KMOCG2hHeEgJcy0ulcksUWICwRDPh2geo/HQL+VviSfSaEDQmA6LOsvKdk0uMZkMHRF0PYCmjyfoxbMQ9LA5qUzC8FBsAhCLy1etnfihFfXl1b/U7xq/eaeE9GSgae+b0UI+4IAecrw+unylv7+GSq0juJ0ZJBr/H/HOPG4gfKwKB1fGur4OH1tvtjjFsuy1r73mCQo97j9+hjDjCg8vMx4k4BCnNJBZw+mWvQMoG/W73w/8epvNOoVXkIbOsKPpu51nQGPX6x5BZBXo/6oqcCgxz/V1bP+c0Y17oBuubt5BZB0ldF/euM/xir03QFX2P1r4h7uG1V93KMuJ21e1ks2uNi/Ivi/TyRmD9vx0Fh7u+YKOv+3AIGBAR/FwL+s9JWvxUMiLStgncOu/CL4+17ajDg9PsY8ZUQcHMIaxAADhSHpDS8hX2mfjkAfDWENQAQcX2B1BvIeREI3Ba29RIEBLeHsAECdE1gcFGMfzwEXFiVnVjpBzjdsRpLe0YECucatjG93kOgMoRaCRgAwH/GiP+mgELJQtEUiPL0YITysFWE5+VaJOTWcb38SwATun4zAc4147fyy/KXne9RyfyWKv1JKj52HP2raNWTApHK/z4E/LXiKMdbn2pT8wzkkeLIHAnedjX3R4rDtwuffc853JoAUot6vidyy1DTP5XftZIO5gATjYqOHVsR28u3NDAqHd8zhpdv6l8MDz8/TfBQCUDk6oBNnYGHv/d7csEp6baCwRTvoax3OTeVTkBuEfjnXouxlL+1vnb81LbASq76QeELz8tlKrVSfm87eaRYyu8dX5MGZDtLX5AaK0cl3/cdit6Aru40bChGg0Hte549dqydAIECfZ5aRO9Vr4VFJ7KSq/LtwUfGguERjlL3x0Ob0Wc6UqTEqjzB6hRgQMRBgcpJcUgklYfApuLwFlZ2KUZcinFDifh6jLg1BNy6Uia+FuPGSQKADTDgpwj0mZ8mcGUinSSQzoCub2eKQ9oekOKQDI04cTAgGwMiUhpyxeFSwQDIHDu2TqCHVGCZHQO66TEA1c6gdg5aXsUS/lI+eZ2yPPxjh+MqzxxS5W8pc7CUhtL8mMpkqTxFkFsEaXXIr17NLDRNYUgkTw+oTJZKaUCOIQ2O5LHiUsEAKFAqTvmrzMv/mgGVXP9/agCDkc/gwwWcPc8NJkvgH92/l3/kHLz1gFOpOBcYLH38KcY4qvxLmcPI/pcAJqVjZJWKS1iM5Krc2v/nQlhbIfJ6nmjV+hKk2zJ9slKvyxJLgcjp/crtyVJf1CWDSSnfLj6jGj5TqThSLCl9CH+JcQMULN0BkWZ6TOXSbdkDBql5Uup1S3nIKZVtmSsPl/yruuv8U4wxN38Ln6pUnFsqyLWVZsgeByUe5ESeHND1x8ai5tIBuS2nrA4tgyN5Hy3lc/yqzsFPJwrasWKOX54iQJRLJaK3f8/YRHetxjo7kfTX2r/b/XkqMLDa5U4KPL8IKcngKscvtCzXAppoWwNqpcUvSPVvlS8JTLhfAndYknEMLlUuCDpmrAEDfpz4cuYHY9QzPhsj7hbf+90h4Ixjmzk1GACVhkm96nuKf6PGJ1sD+m+FO8uN0WJsVNNuCn4OBhGHIEDHi3RdCwYWlfJLMKiVDHo94zMx4h4GCj0kE+/YuXbFhkm96r0T5PoCzWOxZHy5VfCkT0tFNUpZIWpzW9JibuWXYDBi/F59lPBN9YwJFE4PtnPR6lJtTcOkViAADkOe/a0BkQkEZMwCzxxkvdwifMyuNatDzq+dJnick3LbBI16GBwtEQzIDJmsD4msmIdWf9J1Wboqy89cIuCOSdIngSwQNWtDTtIc+Zx4FnKLYNHpGHGSgcJcYMdpWCo3HuKMPpcAz9ySSQ4MgLwvArB9lEghz1LjRnGdm1+ubglgAGybIVM5j3l4LISNgCbApjnybSGsTZGpFdcRcL1ByvKQmx9TKwIC7psQgY3IRlpAk7tCWCsN72afif+eBMARKLxYuBXN1de+A91iKvJ6Ge/wbzHi0yGoAVB7j59q490ySDDg/4FDyeDDGNc+CRTz8EvKi0bkAQPPfYzi79VHjl5PPAPvOLXje+6vJABqybP08JS0G/EeXDap3KRPwlXC0Mjqw3uSkOuH7AyuSfC+1wCYU4HJGzFuRDiaYw5yy9C7/1z5XR3Hv9eQDuZaa+4gq3ODARG3NpxyfF5PEgEBA/0n6UDrKycZXFdx7GmVj+aXpwlTSiZA2kFphEQj+XMBTTzjW2DQsg57fA+faJ2EVk9bBCrvFd3IAoMU31UhbPxdvfoDsP58dQj4AvuzxucgABzqCui/1Bdw/qUs5l78BAojRH9edhsDWauP2xNArJX3FuXvToxv6Q96goF8NtazSj1DoqqYirn6iAMvRXJd7hXqrEYy+Nj4FSPrw9z4pRaIpfOrKbPqpgYTil1wiT1jeYIglYf0nywPSWH4tZWy8JUYN7YEdE2KQxkRGdh0UeanCPT5ApsfPz2gz6QzoNMDqUQEDmMYaIZGZ9n4dJxIREpDOk0YAQY17azyoancCAhKX3StjZVOzTO3FjDSQICXfLC6R0qaUjoubRXenXgb1OtFuqQALo9nwMtlwhTgMEQ6b/eKaCe3CDIsOqeLSn/8WotsRCVajgR+pEhlOTNkaXAkjxWXCgbAjqVyk/Uyt2IJ8KQSrKb4qFyzPHw/8aJa5RoQlPBPLRUsZQ4j+5+KP1fXY4zS8p1I5Tbl+CPHuNz5e/VRwreLzyhXPwoMgJVS0dOwZIARD+FzigKL7Aoi6pyTtHpLyoiOdiVjX478nmeYeralY+/aM/LwtT7D3By7pnIrbVtS7+VLjc/Trlt+CFJnsATxce4XdW7+Gr6jfo+j5jcslVuuvKSNFyy0dtxHQeoNPhJ6AGlwNPdL0uMZzz2HVn4rdoGnf3mKQEQnB1pOxZo5puZw72qsFx0nWnN/B8CgVG6egb313NyYYhhYodFp8XMLRFr0lkSQm7vmnETKQ83q8I8ZLXfp+HPxe/vgeRW5U5IMl56LhmyRdszomR/3RxiVet0DJi/GiHvFdve+EPCC86RhSjAAdiCVG50kEBhEHNoWXCUetBbzMEUekKBjRfJD4KSlXr82hA0T5NRc5n4JWvk5GACHIEA2Bq/GiK+tnJXmFKFzYdFLxqkZX9ILMa5BYQnSHachqdx6gUEpn9aOL3r6/GGMpn1BFNelc3wvxsmyJ83JL8GgtA/Pdzn3PY5cBwQKzw+QXFr6cDs31QxAMQz+XPDL7XlRLC9FLaoR3zJ8tABPwx59zM1vgUGOnywQ5TbAinlo9Z/KnMQtEbmuQJYB2z4JZIEorRHPiPf3pBhfGhrda8xf3svzMeJ+AQpzvwPDUrnxwKet2ZOonIKa8ICnnHLGRjzjciqWQeuXYNFRAJNaMAC2zZCJZPxDqUA8zraGJ8JBSjXegusLZNwCOR+eTk3OkYBAxjykcGcEBtLykJsi36voB+5LKKs5KMwNBsCgVG4cDIADs+PPBtsxKTVBrkD82AEqGvGtAsUv4MDwgfLi1NJSf9WXMAcqt7wVewOrVZ5r1xIANUdL+Q4sWnwqN02ByCUDzs/tDCz6MLH4l7qY5+bndVxxmOPx9p2q18rvUKS7qZ4RsL1lSPHn6u8PAadmVkJz2slUbt4tQwQ2Ihrxcn6cyD9fyZ6ULydQeNUpWfX6NaVrK/W6lz/XLsdf6pxkkQSDmnXWEwwAYbrca4A/r7YIRFocg9FoR/WW5eEHMW7EMaA/3k4bQyvn19eHsHZYWuJi7sVPR4o1/Lw+94xPOMaQQU9L5tLjGUkdASerrhUM5LMreV9T1D2VG7WhtGnAtuvyVGDQo/9r2RdKn+lIkVyXr2dt3u1wkuGdW0m7EfwECtxdWcYz0CIic8UhxSw4viq7EOPGKYIMfCojIgP2KYKWNYmfHtBn0hlQHAMeHp22B6Q4JEMjTlyJSMeJRKQ05KcJPcCgpp2nfmgqNy8QpOYgtwW1YMBJWh9Ki0NuaJSyPJwyhsFSweQV5RlYSkMte9JFZWFcEO3kFkGzOqT25zILjQczkSRzJADb2wMqSz1/aXAkjxWXCgbADqRy+3f2csg6aW+QGiMVGr11jkeFf+QcRvc/N/8UY4z+DoAjksptyQvhcuHP1fUYY6n8vfrv0UfrWl0rFXcBDFIBUFv61+pk+XWKIUvJHG5s5C9pNwd/7iX3POOSuVjluwoG3meUetataxVoSOXWMoGpv4SSdGpWGrV3Y9w4QeDj3CD6/4OiO3k7RtwUwvp/it5agNXakhaKt/yo3+Po+QEDU7l566b4EjSdwTXCSzHFz08R+Od3GD99luCgzfPthL7jy0KSmEO8XNJC0fwRvPzyFIGIThNONyj3vHwPrMZ6bmK9VS3fkFRunnJvu1TGZWlwRNQ79bo8TSjlJ8ng7Qr7hJuV+6MEKbcodZccL3npHFLtpB8C0cUYN0Ki56IhW/2fj3HjKLEEDPhxYmnq9RYJmZefinENCkQPhoDnOhxP9wYDoFNMxdIJlEz0oxjXf4DuukxGRhwIev4qXq+8kDlJoNf4b8a4Tq76ZowbKdTo8xsx4tLq76sOQx6tTpZ7nqF0UqLPF43/c0kuWlj00wULUqtveYbPxYgHjW3j3NJZVqk4egK9xs9Ry5dI+gMOBu/E7d5uDAF/qHjRei4UDgojxrfAIMVXOsYS+Xv2HwE8GyMeEj80pYA8Yo5NQVZz9eSpaGVPau1/ipeESwc3KJ81BWLLHFppioVSCwZkgSitDa2YhxbJZKtn2fvFsyZpugLumGTFMZDWhi+I9/d+Mb50TpJbBCL5jAgUnml8h2r4rLZDUrkBB2DAPRW1TMutY3jatfJrkoDWPmLzJKF0XiW/rqV9zAUGslyaIRPxmIc8jgG1IACIONANyMxJXF8g9QZyDjxugZwrAYGMecgjG2kBTR5gpsgPrPQDnB5MHDk/EyMeZqAw148m0ZZzU48JcDCIOLA21EyQS8Ygr0Vt7LnFT4t6iZe58hrxsvUZtPT/UkfA9AKp91kC2Apw4uk/N5cW/qnAANixVG4lD7znHKUCkWhufUGKRkkmFP7s5YFa8tw9ymSrvcfP1cstQ80YVE7SwVxgIMt3LpVb7RjeMqv8HfGlLdny0KJe39HFFShYuRJq5lLSLuWg1PqMPHy9nJMeDgFPLwgMgEGp3OQWwZt63arPhTm7JoT1n6ffUhFd8mhtbgoBN4WAtwp0Di1k8bfEPEyVy3ppZyCfnfdZ5uaoSQOyHSkP5xLB5REibydPEogIDKxxcpLbqB+d5lMGawIcFFrAwHOD77P+rxVfjrzmdL1R944CPjc6zI01ahXRufERHSdSuvVbV9e3sjZTgAERgcIFNqYWz4CITha44vBOVnYuRpyLceMUQQY+PRPjxkkCgA3lIT9F4FmTZBlwGLyEdAZ0LWMX0P9TMaqGRlyJKI8T6ZqfJuTAIEWjJfShqdwICFpu8ktMOog4jF1A5sjvC7D5o1jM7ymLu2R8IqkvyPkjaP2mxtGsDiPSloevV9xb71/NC+LFjtiOX0DlWhyDcwq/PEWQWwQZFp3XafELwNqkFIZajgQtGnLODPlZUS+PFZcKBsBCU7nxcmmGPEfMQ015yM2QNemAl/zesU98I3NfLfNPtcvV9Rhjqfy9+u/RxxLAAFhgKrfeL0mPPi43fk/93HPctfdwiYCs0aJSuXn7L/FUbBmfyjzbA6LfG7/0N4ew9kng5beEsCEd1N4Dz6motbstbMY+nPMlvAIG6XJP/agxqkOozfklaElWLX6pOHwnRtOuADg0Reb90fbAOkX4cghbQJC7B095T34KfiqDoGpUk3q9dX6e8l59lPAtDQx6SgVam26p3DyTqBnDOkoE7BME6a5M1wQO0hy55B495L1Pkg4syQTYPEEA9FOE0jlYQVCBfF5FT/89+TV/BC+/PEWQ5VKJOOIeH1mN9fRCpLNc/ZBUbt761ELgJE8SUu2vc77QVnnvF53HM6CTBG2L8NUQcMm4z9dX5cdW/MeMe6Q8CTISMkkGKSDQ5m6V82vul8AdlmQcg1w0ZKtcO2b0ggE/TkylXu/xo2f18XSMa1Cg8q+HgKcKTxqmAANgxlRu3v5lSDPaKlCZTL1uhUbXXJan+NV7M0bczPQEBAq3rACAiNyWXzfmz0lLoybzI1h9WBJAzTaBg0HEIQjQ8SJd14JBbnxPOZAPi97Sfw2YPBWjCgpzgwEwUyq3lv5Jf1BrX5DSHxD19FbUygkUtLgFtxqg4OnX2+5lcX/HlXnk7o/AoOTXdA4wGNl/i2TBQWHkMyzlyyoVWyZA4c16JFjlksF7FQuGlIkyfsGNYdNdWfJ/WSwWeU3EtwZvKr/gnC4lfhluFeIlsL1FiDiQCF7NjDNqoeTAwOInM2SyPiSyYh5afaYyJ/E4BpqugDsmSZ8EMkGWEY2kodFDYnzpnPSI40cHOASFJwecmNXyFqdy80yCwICnXP8wcSTm6b9VMpAkgYDHMeD8/FRBnibQJ+tIEdg8VtTmJcteV9rSFuFYOHSo0tKopfrlZG0bPP14JAOLpBkyEY95yNOo0fgcACilGh+f6wu43iBlecjNj6kVAYGMefhQCGtQ0AKacFPkR9hnavX1hF7ryRjxDQEKU0sFnIakcuNgABxYG+YclDzlEgxkWPSafokouEmrT4IsfyPGLX0BoG8XAPsUoWQB5tpKfQFtGVrfAy+/lAhK+XsuBK0sFQC1Zawavqn7H57KrfUGU85JgO6glFMeWtsEi1rvgcc55CcJUlcgjxhz40vpoPY7So0hSSoOS/lbxwfS2ZZbwcDT9uHMO1nyPXDpYG4wAAancuvxi2NtEUg6uF45PZDtyVMxF9DkrRjxZSEl0KevrLYLtb+aBAo1z/hrinhbSpxPUyLm5sLLJCj0epG9/JaD0uhfXaJezklLAwOgwjDJU0/5EmiL8KUQuiZY5VsFUhampAICgghsxTy05lDyi2IRb09HitopQu4ZkPLwa04JIkVatmXvPDj1OFLM1QGH+oOcxKDpCzS+WkBP0SMJu4KvG/MnMOgJVq1gABQaJpVM4IMY1ynUeoEBbQ/eFagqQSH1AHJHiloata8IpWHp/C37AmuLwPvgJwmaAnFO6Y1iF5xjzyx1gkCnB1xxSPELTq6UhS/GuKFElIFPZURkwD5FoM+n2DPkpwf0mSsM6f+zq3ui7QEpDqWhEYANMKCTA3nNpYHeYNADCIi6p3LjdR80iNj8WgKB1s46VrTIclgaDQb8s1Qg8lME71ipE4OSZ3yH0o+H/5zyHfOw6Jy07ElawpQXRTu5RZBh0Tlp8Qt4WxnLgF89q7xfWjTknBnyU6JeHisuCQxk+aJiKlp9eE8SrCSr2ji5GAZ07QED61gxYltxSOXaacKrzvvk5ZY5Mi/1bBNkUJORkkUL/+j+SwE5Rbv4DFxKxZET6MG/hDnMzd+r/x59LP0e55rfFGO09t+cym2OL4GbH0dRJ69z5d453GyI87co5Z5xjgX75KDmJbk9c4JxIjEeL/c8u5JnaZUvbSFMMb/W99QzRk07Tk1BVuf6Eix9gcYvdQV0tGhRib5Ao7leRIuIj4KfyjRqGtWkXh8pmfQaY1fBqoavdozqVG5TfQlWZGTAjoQs9QakLyAg0E4SUvPk5sdaMFRpdcj1BqmTBMuNmZ8myGAmms6g9Nmn9AU1qddHLgQrdoHFx8u4bwIvp9OEZydQ7n1jNdbvEorQlv57f0ezxFQs7aPEbfkmp2jsHV+CgQxoYh0pEr8VFr3EOYlAgE4UrJMFMji6KOZIkoEVDTk1dq4d90vgTkmnY0wmVs31S/R8jK5MSfKa+yM8yHwRSvrwzjHF97sY8U1hi/APIeC3DvuN0nm1ggEwcUzFGn4JBnKrIM2QNQclAGsLxJo53OIAmRR/qrzmJdTSqB0PYQ0EvE62s7YLNdsE6aREwUzIxoBAoRYMej3DXFj0WiAo4eXXv41xDQpLAgNgwpiKvfj/EGPSFyEnmXwls38GNiMacemAHJTkFoFvC15XvuRchCNOr0zwkkg/hDvFL1iOH9gGg1IafY/efkdIBZ52BAq/STzDqcEAqPRl8LYjxyQZv6DmBm5kkkEpGEQcREPW/BG467LFr0U3Kr0HaWOguS7fZpwU3K5IKCQRWDRyodyjgIGHnywQpbWhFfPQmmMqcxK3ROS6AuLnjknSJ4EsEDVrQ07SnVn6I3wz86ND7X4TI76lgELJu9X7hzl7ytACBhTQRIY58/DL8hbJQGsnYxjwMGecJBi0iJc1bYFtHQJwmEZN6gtS/VP5nc4XViuvBQNg2wyZiMc85GnUiO5nQPlAOEipxluQvgDYNENOWR5qHotklizDm/FrLaDJN0JYKw2/ufrMW/xDYsspQWFKqUArGxJTUcY9fC9GXBe2YxeU9i3BgByVWhdpxGHcAisAKhE5KFn0mgEe2vYgFw5dztFT7mkn9QV3OebR4xkTad6KrS9yz1/V0gCoLXOp4estFXAaFlMxGp9L+XNJVjWfhJzyUEoHqfEvGcitRTayjI1eZfPhuRHof0005Ag9r2IJ1XzPpDg8k3nGLfOy+OhaZlsu5c+1y7X5RgGQ58Yg6WAJYAAMiKnYm9/aIlB0Ixm/QOuDFIkSBGQ7K7pRr2egZU96OUbcboAClcj4Ba3PWNsylPQhTxNS/DmqeY+eqxi35692iXNSipYGBkBGqVg7AblFkKHOWm+AhzrjoGDxa7qC0heJtgmaZJCaswUGnDRQ4C1JeXhcUTqWfkdatuUSfirPHSmm+igZWyoQtXaWvqBknNr5AQd6g98agP4tY/7fCgG/Nt5Db1lJufd9Lw6y6i2naEb0uZRfa0fbAykREChoAVAlaYpD3l5uESwgsI4SZZ+kJ8jlVSRQADa9E/ln7xZhql8cil3AQUGLZ0BEpwc8oAkZHZEy8VSMGyAgA5/KiMjApp0Bj4hMikN+msBjGdBpAVcY0n8eu4D+PxnjhqEREQcDOk4kIqUhVxwSGGjU+ztKtdVo65ShBk2tm6gNgCqvLSDg7a1jRavflLERv37dWMia8pAUh7xdSYJVzeAoN7M5qrUAABlySURBVEdpaFT7jO/OAJzFLyWECDvEmZY9iYAhsj7lKYLcImhWh1T3TOZ5P514xk+xuRBp0ZBzZsjyGFFeTwUGJUBA1BRTsYdo5unDe5KggYFlY5CKYZAbxzpJeLVgQUudQe0zfskBOJ5twtmBe9lSvjnew6nGmPsZ5Kg6puISvsS553CUXpKjfo+j5zfFGKPBAKiMqTj3l+jVF4wEk2MhbFgflvBzBWLJM+K5FHm5Jyy6x9bgTOJ+dnkhzDU/T/2SwACYwduxB3+JvkC6K/McCRpZpwjHQlCTrObmqhEpED0JVk8oIAAcgIMEAWtcuqZYh3eHsLVFuMepU/GUe+rnfo+OQv+9wQAojKk4x5eYCmZiOSrJkwQZy8AyNiqZV0m7nLsyJ3mSQAFNOCjUgAEnioysOSctbSFIf4SSPrhvAic6TdByKtbM0aII4NHVWL+umP8UUoHkHerc1KuPErflm43F1+MepPmxZnqsGRhZ9gWe+dEpgvwvtwnc2OicAXjyJEEmVa15RtwvgTslyTgGWjRkT//PxrgGhRJ+6X9gmSOnxvbOMVX/6xjXoEDl3w4Bvxr8o5Qji69YqTi1aCfBQIZFl96Kmp1BxIE/Qq1koOkLNEOj3JdjbROOh7AhGfAWJBnw40UJBAQAMkcCJys0ujX3UjAADp2X6CiRQKEWDFrnR5QLi17Sf67OM7dfxYhvh4BfOiUUq7w3GACFSsWpwUDjfzPGZLblHKX0B0TWsWJqLM9Lwj0UiVJgQERbhDvFf888cvYFGnkCmkgw0Ma2ymufYSv/6PmVgMgvY8Q/KqAwJxgAg7wdqdybU9FTziWDnGOSxv/6SpmoJVhNZVwuCXVmkdQhSN3BCXGd0xcQKACb2ZM0IuWhdFuWvgglkY0kGHhfTrJAlNaGVsxDay4ycxI3NuKxCrglItVzxyTpk0AWiNLaUEY2kubI0h/h0cz8iTgolIDJKDAABnk7EhhQQBMrjsEoycAzfwkE1ilCibFRqo3cKnifMYGBlApqfBKkzuBk4sW1+vWCgXZ/0gyZynnMQ+6XQH2QCTKBgRbYhLYFmt6At+YmyXKOBAQy5iGPbKQFNOGmyI+yz9Tq24YOBDgEhScatzE58vJWOTel6iQYRBxYGsokqzWLWYKBjF+Qm3OKXotxS1fA+9MUiPKXv0Z5mGvLlYWa4jBFsgVPpXaSSQgR2PA/yM0rV597j55TFmqu35LnVtpGtltiANRRUoGsH+bcVAsm8to6NSDSwqLnlIepbYI1H+mTYLksp8atecZcQuDKw9KxgDIJwepXKg5rqWahEsktQwlvj/fU8mD09CnbfUeRDuYCA8BQKraCQckEcuNbMQxIOtBCo8s+uMdiag6vxrjWGdTe64hfjFz8ArIrSPkjnBbPsSUaMj89SPGN+lHJHSGO+tUmspyTSueyNDAAGqIuW+XaFoHHL/Dw59rxrcKluBnUROPn1ofHFOmg14vSGxiJpGRwtnAhS8mASNsmWJ6Ksn8JCq0vssXvkQYsfUHLfEroUWZXIMf7RzF/Kl8iGAADvR0JFIC023LJOLQ9kJ6KZI6cSphClDtStIKYzCEZ8HIOBiQNEJHVoRUAVYtsJOMY1NwfgcIp1s9zcTueAfHT6QFXHFLZwyHgmRjxTIxbkZEfCWGtOJQRkYFNt2V+iiCzJgGbEZHpJIF0BnQtYxfQ/1/HuGVoBGADDMjGgIiUhlxxKMGgFxB4eHP1AY8/Ht/d2yvuYCrxMGIbCCz+WwuOFXmAk9QWoSQQKhGPhHwiHNoZ1DwjAgJpcESgIE2QOShE+E4SJE1lX9BLMptijLmfQY5agOD7+/uIKwwY5tzUow8qz50k0LUEgwg7lZrXUzEVANVzfxcq9BG83DJDJglBSgRnRPvTlWBUMsea/qdeqFOMsYtgIGmRqdyWMIelvySXw0KYa36e+qMCBrL+E94OpnwJrJc6Otql+pZxEKmd3BZY/GR3wOu51WHJPXoiH/d4xp5nWVJ/uYOB9z3s8Qxz1BsMgIm8HVv5NVsDi6wtAnB4rCjTrZfEPbTqPT4JJeVHcaHtwhxH9t8LCDy8tfWL93aMgJpKTSoQc/1y12UpEdC1pi8gA6Tci34hxrUCkbe1si0Ddkq10mPFo7IQtHIZGblkDHmKQOV0cqAlWu19D99ZjfVvnSxqW4Eg18b0dixBsyW+SFq5JRlE2EFMUtGNZMlLCnBoZcCm5WGqz9LyqcGA/BIiNp2SeBwD4DAacun86JixhI/AgB8nzpV6/YkY16BA9FgI+EWFpecoqYDTMOcm70SmAoPS8VP1Jd6KKTDgXoo97m9OMAAOQYBsDMimoBYMcuR9R6Q3ojfbcskYJc/wFzHiu4WgMAUYADuQyq0nmFhbhVz/UjrgugIr5qE1Py4ZECjMtUVoGUOCQSl/rryUb4n9p/ooAYWpwAAYlMqNyJtTcdT48lpuGbjOQG4ZekseVvwCMi6iz6Xjz7EQasGAzJDJ+pDIinlokUy2Kl2V5WcuEXDHJOmTQBaImrUhJ2mOLE2Q5RYB0J+jBxRGg4GsH+btyAOayDBnHv6pJZNcvRYQlaQDGQSV90FAcJ4tICkZ8GjIwLaxkTW3ucDgWQMMcvzSDJlIi3/IeaU58u/Es+b6Aq430JSG0iSZE5kly5iHPLKRFtCEmyJ/J4QNBWIE8N0EwFmg0ONXv6YPdyq3VF0KDIDD4Ca5vIql45Tyyy2CVyqgI0XSFZTM77wBhNo2YReyJ3n7TfHXeCt6y3Jje/iWGgB1ivpJUrmlaCowkEeKqWzLnEbZF0gHpRIgngsMIrYVh1PMT5JMtlrC3+Nd9mwJvPcipYM5wQDYgVRuI+fg4ZN5Eoj4NsEKfCo55TZBxjCQ3oq97q+E19OOg4L3xe8FVgDM1Ou9+s+17eW2vDQwAAalcpNbBBnqbEowSZ0kWLYHF5UXvWWO3pME7sK8FKnAqiNQyGVbzvWdoohNacDqx9IXlM6r9BlQ2WMrvYHWxtIfLBEMgIHejhTNiD6X8lO59D/gJBOnEL3CvhzLW9GbSk27JumAl3MpwfvwSRoYJRmMlu7IzoAHPU2dINDpgVQiAgfKwidjxJMxbigRfxcjvhkCvrlSHMqIyIB9ikCf+WkCj2VAJwm/Wn1ndHoglYjAoeJQMzTiYEBKQohrDgD8c4t016ueU8Djj8e3RTyEubcJU2wRZH4ET/9khmzlRAC2LRCldGDlSZBuy9YccuWlfHN+B97yXX0GOZpioXv6+JEVD2GUaFXSx1QvYk1YdMsMmbeXlodyq2AdKXrnkCov5Zv7OxjV/8gxdgUMausX49w0cg6j+5+bf4oxlv4d9Oq/Vx8pWioYADuYys2iyx0MlrAQdh0MRgOBh3fu+q0AKRbjEhaKdmIQWVvt1IDXa3XcMalljneFtEeeFvl4SQtBq5PluWeZossdDFLPztv36HpgZm/HXX1JPGPLdvxI0QqLTtQaDVkrX9p3MMUYSwKDkfW9+gAcSsWlgAHFL6D/3gcgfRC4CTIRD2LyklAKyiAmNTkVJcmkKfzqXofEUjr20sCgpP9UMJMcrzxWJKKjxFSS1V5gQEeQ/1o4/6nqJQ1zburRh9aOQIHsC7SUavxKpl4HsBEWnVscEjDIcXk6NWAzlRonyzmJJIPT4gWsXWglvKPBQLMpALBlT/Bk5bHqb2JUHZFyfOSgRMAgPRY9feTa5SjiAAi+J+b/vRDwrwU/aqPqNRqSyq03mMjoRhTFSDM6ssaQDkqcuISgpV+X/cocCQCyqdSo3MqTYKVVS80jVV4iqpf2oYEBcBjdiBY/gUItGFhUOn8JBlqm5RR/DaV4CSR+XmFd2aveoiGp3HryW1uElFSQGkOLecglhBwYpMbyfgly8d9rSCbe/qcCdF4nwSBHU4NBK3+LVOBp8/MY8X0DFOYCA2CwtyMlWbUyLZdsESSVpF6XwU9l4NNUIFRAz7YsvRUtan1Rc/VzSHcaGHhAhPwSpPnxb4UEYWVXpvpUKjUe2ITrCoifmx0/IcZ9bFWnmR9zkv4J0gxZbhHk/IkkKHjBpKU+R8O8HSkqckSfBKup6Eae+dFW4aUYN4KZlGwRuNmxlkYtNwe61pKspmhXwUCWExDwgCbApnMSz6tI9C12pPtoCBu+CRHYCGgiA5nIufBAJnKO/xYjHhN+BwBMPwReT0rD77HPRN9LHEkTKPws8+MyGgiI3FGXU+UpMAAOJAQOClOLj1JpKCUCfpKgOSeVPuzcM3pRPIf7EgCxJDDo1b8Mi967/9Y+aiIij6SpwAAYlMrNqmsFnhq+CGyFOOM+CTKOgffhRuh+CXMutN59aOWkOJRhznr176mXW4ZS/lbAT4VE886BKCcdjAYDyV+tVKz9klv4aavAjxItF2beF497qOkLLFsD4pceiq3PKLdlmFsqyNXJ04QaannRf1UB4Fb7mjv4hePI0NP30sAAGJTKTW4RjoXgzracImlTcLFiCyL1BVYMA37Ng6C2Ap5Mte6lpW0R5JHiiDGATWnA6t/SF+TGrV1Qkk/qDXj99w0bih8sEAyAgd6OBAqAP/V6ilrmR4pDLcyZ5JG1ZxnoLDka8kh+q55AgUdBpoAmRFqIdK44/JYoo8jHRHT96EpxKEOkA5t2BjxEOikOn2CA/xirJ9GfKwzpv1WmGRpxMCAlobym04QcGIwGglwfAY8/Ht8QAVIspjlfRC0MOlkccmMjmTRFniJY+RQ5yePE1Ly5oZFlXHRvCFnJgCsWn+/4q7t0sOrVf68+UtS6WEfX58ji/7EVIMVibH0Ja/qQ9amAJtLYiJOUCKyw6LX3eNroj7dLgQHVPO8AoStgMIbfQ3Mv9lFgIGlxqdymGGNu/tH9jwDkXPnS+p9KKvC02RUwAEQ8hCUtFNnm+EqhF0U7zTdBG4O2Cr3u8aTRX46/dNwe34EFEDnx+woY5Otrn2HJGC1U2v8wb8feL4nVTqZSy31BRJbH4i5kT9rV+U0xxpRgMGe9h2rGWIS3Y66eZ0/i+RQ58WtLiUggIHMqElnHiiUv2RUw6NM/lUl/hJI+HhOnCETydME7x5r6H6zG+plj/t76HLUAclfnppo+Wvi0BKuakRHPtsz7s0Kip8YvnadmlkwKxPuVulMFEopVPiUYcL8E7rAk4xj8plLy+mWMa1Aoua/HMv4HFvX+Zf9ZjGtQoPofhoB/qQSjHLXOf7ZUbl5e0hFw56QSfut6qtTrL6wWwv0hbJ0knIoRD4SAUwysHggHqdZrx50LDCIOQYBsDPj1nJKRBAMNHFre09L6f4lRBYW5wQAYlMrNOwEPX63bMvGQdMATpuQkgzlTqT0XIx5koDDXd5AbQ4JBzRjee/D2W7ugeksFnjYSFJYABsDAVG4Rh74HJZGNrP6lgxKgZ1CKSh+kOyAgsFyXvXkV7w0BL8aYNTia81cxVd7aP4FB6UtMFojSGtGKeWhRKpUadzzSdAUyzgEflywQpTWiDGIizZGl1eEPMvMnIlD4aYNPCNBXJzHE25HAwIp72AoG9MmyOuT6Ai4VnBVonAuNXvLr6a33fjm7DgZavTRDJuIxD7lfArXgAPCdcJBYlRPXF+T0Brxe1hIQyJiHPIiJFtCEmyLzz1T/w8TR+E9jxI8qQaFGMsnVb9kh9AYD4DAGYo5Pu+YxDOiPiCQE+n+uEHTOxLj+S0VC9pTz+rlF5NEifGv/v2ILRmubKi+dSw0tNQBqaf+5HzStfngqtxpefu2RDLxzlFGRrfwIqXnex7YJL8S4cT3qGZYshNFgIBWHXuoJho8Z31vNPGraaB6MJfy8vkY6GAlGQ1O5lfJ5RXTyXJRh0TVjI65AlDoDqS84adgh5OaWqu8NBlMDslZugcIU9wDURzTqtZBy4c68YywNDIBBqdzkFqEm9Tov55IBlw7Oia2CFvT07GpLkJr7yRDWpsha8BJqx6UBIpISUv1b11r5QyHgWUPi6L2NkeUpMVOWSzuDUSKwVCBq5IlgNHIh/UAxqyf6IVsHSwcDYJC3I7AJCi1gIOMd9pgfbRUIBMhtmU4PtD40MKD652PcsjOgTw+w+T+4+kxHinT9EGszAgw85TX9EyjwoKfaCQIRxTHgikM6UfhOCHgiRjwR4wYIUOBTUhzKiMiAfYqgZU3ipwf0mSsM6b8sI2WhNDQCsGFPQCcH8poDQCkY9NjmeEcLePzx+BqLh7D0F5HKyb6At+PHipLfc6TIAYEDAbDtwqzNjywPTznalpQv7TsY3b8lzdTQ6F/VXgtxzvH/uxYPoddLUsLb8qJo2ZPksSInj32BBANAj2Vgza8VCLS6pS3W0f17+T0092JfOhho9V2cm0r5ShZEaR9HfSHMCcij++8FBj0W6uUIBoCiVJzzJbFExYjDEwTZjp8ipPo+6WyXohTfA5n+Hyw4wWiZX+oZ5tp5x/CU7yoYpJ6Np94zRo7mlFyavB1L+Ua8JKkMSil+KxS6ZYrceo/Pxrg+QXjIGJvo6YJtSq/59eq/ZowlgcHIeg/NPcdqb8dSvpaXRDomEQhw4kZGXF/AJQMCAdIVvCj0CtrxoSzrEQA1dZLwSMac2tO/Vb7k79gqy8UuSPXFfRN4PZ0c/DzxXXr699T/aDVW7lRhCdscoCKVm6fNiBdFI00quEeI5qdjxEnlOBHwJ0yR8Qu0OAbA9rEi8ZNk8GwHMPHWT9U/5VWM2HRK4nEMgO0U7N75aceMnjnyXAlzpl4nXwVO8thxbqmAU5FzU66+RPTz9qF5KpaQ1ToXFj01v1PKl8ldllP81nZBbhPmBGQvHwcD4BAEyMaAbApqwSBH3vlLMJhCMkgRd2iaGwxkvTuVW66+t1RA1xwACBSoxPJF4H1wV2VugJQiGcgk1X9N+TNCgpDbhDkB2TuGBINSfu88LKrl8/L3ENFTRKDwzzNJLla9S6mYq7e+ZPJMzAVA9bwkpDjkdWeMfuU1AQD9l05JRPeF7ahGgL5F0CIbWXP3zNFLc0kFvK4WDMgCkawPiayYhxbJessSUdMVcMckK46BZm3ISbozS/2A3CJoFAH8c4z4sQEKc0kOWaVirj4FBjwNuxbMJMXPyTpFsCQEri/gUoEGAB6iLQIdLUZsRzay5q7Rw8a4c0lnJXwUu0BrmwMTaYZMJFOnpQDiu2EzjyKwqS/Q4hZw4nELtLofhLAV3oxfawFNcmbJHCDkjCQo9JBMWuqT3o65DjxgAMDMq+gFA2D7FAE4VBhyxWHKOUmSdFuWkoD3pS8VzaW+4JGEjUJujCnBoIZfq5vbWzFXv9QAqFNscz4Z9/YQ9vfxsjO/o1Ve+kJ5X+QSySA3jvRLSEkInvk9VyA2tyy4pYBBxLbisMf8PMR5ZbJVT9896z1bAm//JB3MBRY/2d/HP7G1PzSmore8tA+SCMjGwHJdjthc9HLLIPUFJCHIcR8wXoDaBajZGrT0XyqhtI7BQWE0GGh8Vup1L39JvUatMRCJ5gYDjdR4CK1fMm0RiGi7oPFbAKGV3xPChnRAYc9eFP/53F6IMXvEeH8ISRuD52KsDo0ur5+OEU/HiKfEX64fb/+8PAcULWNIO4NSfg9F6NKA7NeKYNRjIXnmnpIYrLolggFQcOxYKhlwULDAwDOOBgClfcg6ufi54ZG0MeBAMHdo9KX1r9kZpE4QSDkolYi8TBoiycCnMiIyYJ8iaFmTuDKRTgu4wpD+cyUh/f9pjKqhEZcYZD0pDbni8Mch4H8tCAz+B/scYjyYZdjfx0VFj6B13LpN6MGvBTPhx4qSrCNF3j8lTSmZHzc0ekaACdEjIawViVbfX2f9POmQGOYGg1p+D829UFo3BEuYn6cN6Q84IJg6BKvTJYABADWyUWprkAMDoC6N2jPKPCQ97fg1eGoCBeXSwWCKhXDUwaB1/m6lYutL0qOPXV0Io+c3xRhLB4OpflVHzmFuMADYlgE43DbMvVB6gEkp366CQctLcgUMfPUemnuOpfegbRcAccpwcW8Px/f3XQNNudAsgMi97FfAwC6Pietcudb35QoGLe+hdw6jwECjjS3D7c6BLueFtgtzHNl/LyDw8M5dn6MlzK/lHqR0AIgtw7pwfx8vOU8crPKjBga95jfFGHM/gxxNsRCOOhjUzt/aKhCphkkv7e3hDmXr4BUrr4CBXT/qGZby7SoYTCGi52juxd4KBil+9ZThhHMCvV+ymj5K+Y4aWHnqjxIYjKz30Nxz7AFmP0nUq1uGdeX+Ps4v1FhpijF2HQx69H8FDPr1P+c9/GR/H/9zby8JBkAityMAxL093Cm2DtrEli6Cp8TIXV6sI/sveYY5mnuxzw0Gc29zCAw8lAQEADgvQGFJYNDa/ygw8Yxd026q/ntKBaMXwi6AQWt9LzDISQdAZsuw0XAFCucSeSBLy3d1IfSa3xRjzAkGc9Z724ycw9xbBABFYAAUAAIAnAdw1/4+zjYeSZa2reFbOhj07r/HGEcFDFqBYIo5TLVF8AIBUREgAMA5AHev0OdshbRQuxBGjrHrYNCj/ytg0K//ue6hVirgVAwIRAQMZxPnmktZCD36OKpg0AsIPLxz1+doCfNrAQOyMagBAqJqQAA2pQUAOJOQGHZ5IVwBgzTt8q/qVOOPmP9P2NrrAQZAIyAQnV39v0ccUZ5eAcSuLoRe85tijF0Fgzl/VXvNYSow+IlYX//E1lcrEBD9fxwXSaZPMIW+AAAAAElFTkSuQmCC;" vertex="1" parent="1">
          <mxGeometry x="330" y="100" width="219.72" height="180" as="geometry" />
        </mxCell>
        <mxCell id="H78yyhmrJmABQ--HX3Pv-2" value="" style="shape=image;verticalLabelPosition=bottom;labelBackgroundColor=default;verticalAlign=top;aspect=fixed;imageAspect=0;image=data:image/png,iVBORw0KGgoAAAANSUhEUgAAANwAAADYCAYAAACAy42XAAAgAElEQVR4nO1d2ddlNbH/xeWbCorIPCrQczfNLAiCcNEHeTx/5Xm790UcEJEZBbrpppmnZhKRi3p9uMNauQ/fqXPq1K4klezs4fSXWutb39mVpJKzT3472ZUanPfeozK55XLr+n8WC7VerGOtzGeU1+xr7P5Cbce6XyXtSu9XjXY59yvnux0U89gH5nEOuZqAI6D972pgY07IBrY8mQ1stja87NBqfp9bLHAwUjdGVQAngQY0sKXKLnEOX3lvnjw/cA5/VX6qMcF2tXP4WIzBA7jWOZxf8S9UsHEi4L2+WOBQpJ1GvQHnlsstoAEXHtgudi4iaZv+M3A7Ne4lzuFvkYnK+RJwPwiM6S+sDn26ImP8n4qHgJR1DQPdfgQb5x1eLrNBVww4bVULDbC0bA5gC/G+6xy+ViZ3qL9LMib9l8oE1gD3hfjpLnNuDbjU+K90Dp8pdUPtrjGM/yNl9YuNwVpH8uYANqLDKxycXSxwOCKL6JuGOh3SVjVtMH3K5gy20rKvjBOc8/lKRp8l0CwyS7eRnBdb2a4TgNwPYPPYAxoAHFkuTaDLAlxoVQsNsLTsQgQbUWql+1Js6WhVoxVOk3kZkzkU2EK8/baNDF2fXSxwZIWPmDbTDDi3XOL/FotRAXChgc0DwXe2S53rgM0q07qNzJUrSW4rr1UeHvsRbMQ7swKaWy5xZrHAEaXeNyJ9r6mBLY9S7Tz2AEZkARsRX80ucw6Xsz+pHKm5sgHAee/Xf8DeOxv9WWVdqGDjdGaxwFFxhkdkApy1oz5luwS2Gt/tS+9xqXNZK9tlQlFCK9vn3uNzg8IiNJZUO8v9SvVV2t+ugY3zzihlyS1lU5DU6+/7gfe3SwU/pP7/IrKSWMZY0o7z5BZSKkpisvYb2F5bLHBsucTpxQLHWHn0WKCBLVz2Pee2ztwsYPtSudWXKur+vyrAotWNeJc7h8+9xxXiv3Vlu9o5fJIxfnl9nXP4KHFmlyNbG6NGuwA2fn1cgM68pYx1VFq2q2DL7c86eUJgi8kpAZtFbs1Jl9vuQgGbRsEVbj9YkPSRSSuc5btdqqxudKWZbGky5aG2XNmuYAfZsbEQ0QqXu4200Ac9LE8uRLAdXy5xarHAcQQA18C2oe8WTDip+peA4/1JwIXGd/kKcFROGkm+sl0pQOcBXFUw/vOG8VzvHD6M1Gtg2+adWIHOdA63X8HmkWcbqX23ENg0W8jQyhYql9vIz7xfg474KdvIGK9tI+u366xwcnXbz2Ar7S9n8vSRaemngS2v/pDf+8RyGVeaNLDl99fAlsfbL2Aj2lrh+OrWwJbfXwNbHm8/gY146grXwJbfXwNbHm8/gg1QANfAlt9fA1seb7+CDehpS2ntqObk/7ZBuzc02C4JaA4vjWgUUzIb2PLb7RrYPJgtpVsudzK61ncC50x/V1TxOWdqsUPtv3nfMdXi6v8GNp2338EGGIyX5ww24v1DTPSLAyvN14pFh7SJTPXHDZCl0TFda8F+YjKt5X3bTQ22m1b3550MG076fGDV9k3xIDy44r8xsIsQABxb9XW6hw1qFHBzAhtfyejzPzK/eJ8yzoutbKHgPhqfTLUuV8qmsI28jlmPXM/G9IH3uIFdv58Zu4Q+v+P9GnQ57Q44hzdXfR5wbg2uWNsQr8/9Ou09jmd618vrIODmBDYA+OfqJn/HuS2g8Tqhla3vWGL1rTLJtUZa/QPbBshEubaRObwU2ADgQ+9xvXNru0gCXSnYcscZKpdgG2Nlq9lOBdzcwGalv0dufml/2ncLbSX7yJTl3Ewrp12KZwGbtd3YYAvRroDNQwHcEGD71mpC/svolWzp6yLn1gDT4kbK97W+/fHPcksZchhNPTByJtbcwHbj6nu+5z1+yL7zu+Khd1PkYQQAN4vyN9lYDrAy+a7GeQBwTjyYDq/KXvd+/RkAzorxHRX9vybkHE+Mn8sKXXPeN1MVLUJi5d9ybg00/rkW2IC9le1iFidS00bW/m5DyNwVsHlsgPZD5/Ae2yL/yLm1UuQm9pnacYDd7BzeEuX8fY0UJAcD720EskPKQ46Adti5NcgA4IhzOLO6Pso+U41jzuG1Vb/HnesoSE4k4sakfotib4FcsAF7K9y3nMN/hZ3Mg7IuYl/075H2VpnW+lpbuYWUCpFSAJeMZchtUWo8ALbAltOu73is9c8a5srQ20hORccCpU/qPn2RouSixOqVGxE5xtPKZcAfqz9bjEonbN9JQIqRDxXQWH/D0p0A8W4JbNn6gs16v+SWcuj+so8F+oBtiJtI9LX3g4NtCJljbyMlT2ojc/qzlKdkvamsQKVzyNonJ/nOViIrp7+sY4HcSUBbyH+tnqDfDmwna3wpAhv9rw2MmCYyJ7FGahzEv8q50ZxHSeX/QWF/1tVQKkg0mvKcDei+t3GS7285/RGt3XPccon/jrjm9FnZSEtZA2wXrxQmxCMFCV/ZvqtYj3yvINRAKCwCJy2phqzvoWewIZX/lUrZFJ7a2jnbjWxs7zEFw48YnytJiN5e8TjI3vJ+vYXkB9mcQlpIIq6NPKSU0zvbEVbGlSREtLIdEzJOs+8IbIPsVe9xq3N4NePsT5Z1ADfXbSRX/UtwadtIzWRriG2kBri5byNrtSvdRtaYQ1N+75x2six5LDAHsAHhQ+3QO9sYYPPoZrJpYMtvt1/ABiTcc+YCtqH7KwVbrswGNlubnPpzvV+hMpPSZE5gk1vIvv2VgC20jZSh7DR5IXOtq9x2JOTQOKyJERvYpmsXK0vaUs4JbBqFfNw0f7acLKQxF5svvN9KrGEFW4z/ifem8ONAPG7kdc41sE3YLlU/aks5d7BRmaaR1Nr9TZmosSCtWn8yXRQncrP5PCCPr25XrtT+MlDr1exaS2Afu46NO9VuDLCRRjKk9o/J47aRvA5pI88Ydgd9wXZy1dcrPY6dgkqTuYGNr2T0ORSkNTWGkm0kL4utbFz9b+1HbiU9ultHXiMn/HjOfSa7SPpMJP3Y3mHfP9afLH/T+84xgGVsh53D66s+pW2kVVaNle0V73Ey8DC3yjS750y9snHD5BDQQmdtNcFmlSl5dNZG/0vP2c4PdD7HweaxZ/XPDZEJdKVgC/Fy6nt0bSPHWNmsZLknJvecqcFmpa8SN78W2ORW0pJ5lIcfv0o8Ja/OeOqPAbYUTQW2Obaz1k9uKUs70cq0kAh9++MH29rK9pVYCUpAHGqjZbEh0ixKuCxNGzllFpsQ2FIPJ7Igedv7LWsSaRsZ20ICXWuSc+xecD82elfj/mzccuSMuIc8/gj3aTslxifNtV4Vck4a7nvOA6hqTBOt7DvO4Z+rL3GRc52APyUypRXJV97jEufWK9wlYgWZahsp+SHVf2iF49rIj0Q7zZdNG0NNsHEioHGfNo90/BEOsIPObZlqAXvmWvS+RgqSI+K9jT5xky05ZgIat4302AMYge4EM9MiutU5vLLinVx95jVuM+xmYveyWkwTrYyDDdhb4aTzqFUmX8VKlSU5/cV4MuhPaFXj7UgbycFF4PvYe1zj3Pr/ee+3VjQ5nhpgC/Fy79dbCmAtNMS2TqsjbSP7jimnvlZeJaaJdQB9ZGrbR63dJc518rOV9BfiyeT1oWA/sl3OyhYbD+XVvj7S1mr1T17bMixCqp3k9ZmomgFyjsy+D5lbC7bqln5C5b1jmljKUoOo0R9tK4cEW85T3HLzaUWjIwD6T6ub1i61st1gPPgmntRGWttZy1N0Tnk4jAU2oPvOFmtnlRkr/4bGtHaS6oC2kHR9sdhO1uyPwPb9yDlJ323kFcofsKfql39XRUBzNQMZsDngPi/+544xRKl28pwtV5aVNHcbKe9w4ThKxyXbxc7Z5PubJiN1rwfJgMp5HHQ1wKYRX9m+9F7Nqd3HgdSju5WkK2sou74WJEM94emzds4mNZA84A/5tUklCbAJ+vOG953IWoecw6GVskRG1ALQCfhDRBpJro3kvmykiaR3NrqWShIAa582Osjm9DLr/2Xvt0D2Z+9xe0RpYrn/W/5w/1JyC/QBm7WOpYy/u/HzttA2cqxY/xxwJVstUpLwOvSe9lFk/JJHkZHfD4Bf4+XsBPpsI4d6WIzRzlrfKm+wUOc5g7CUhQ61Q+9sYyXW6AM2D90Q+aMM0ND11BGRQzQH0MwFbEDEH25OYKs5efrItPQz18nTwJbXzlo/d55UyYA6Jdi+H3j/ssjkJlpjgi1kmHxdYDwhXgPbMO2s9UvmSdVQ57mDKCmrqfonvzZrdC0t2E+IYuZadLDNDZGvcy7rna2BbZh21vqlD+Vqoc5zB9G3vxKwhbSRoXRRUl4fT23icQsSaR9JK9yFmliDNJKae02qHy03G7DRRp6KPDRrfYc7Vn29lGEpJe9llVDn1jp9ymLbSE3lLz22PYYJ+GMt57zYyiYtSKjeDcp3JEXJjUrZu4lVW+Nzu0geEVn6sZXGjdSOASztjjF7SGkbmZJV84HxJ+/XoLPI0+ZX71Dn1jp9yogn0/wCG/V/jszQNpJb/ufcxFhfGq+kHZlr3ehcR/VPJloybuS7kfsSAxuwARlPrDFVkFZOEmxjrGwl8kLteoU6zx1ESVlqNSmR+RfvVU/tMcAGbCtHtGutXW5/MZOtFNhqT9QcmWO3s9avATagR6jznEFYQiKkZGmrW4q0lY1Tyup/qGSI/JxNWv5fr5gWlfRXurJZ+yILErIeIZK2kSFTLaoTy8+mWZLwFU1GReayefwRbk3ysphD0lzrz+Khq20heXmMr9UpDrGQAzaK9Z+bwJ5/1sBWspL+JbKKzWEbWSLbWl5zZSOzLTLTIuL+bFr8kSPsgZLKzybf2+RYTq143OKf6hDQTjq3BbLb2PVtzq0BRnS7c/jTineHcx0FyZ0RW0vLPCkKsVACNmBvhZOgy31SawoSqX20xPqPlee0S7XRruUWMuRqU9KfFWylfcn6MvNoCQ25jZQr2lBknV/ZIRZyn7i5ZamB983PNvXKJoO05uRnq7WNJB4l16iRMqp0/Jb8bJYxlD4wpDFyTF6NeZKlNCndFllkS17Jk3qo7dfQ28ha7TRKtZPayJTc2g/lGvnZNLJ+B/nOlttnbjuz0qRkZZNbSPo8BdimXtk0TSSRdsYGbM7ZSr7bTc6tU0al2nHQla4UljpHlXcteT30OVtsfID+3kZXd/V0zQGEe84/A/nh+m4jybVmCLBZ87MB/VT/lnAIkixW/5QIMVYH2A7MSkTnbJrzqBVsnFJBf0K52biShCiUp41AZ8nPpiVA5NpILTwCV4jEeLSyyS2lpiQhetF73OUcXhTzOAcfHcDVBluOrBgIQmZZMZrinC233RCZR2uu9tb6Y92v3HbW+kPvgIiiSpO5gA3Qk2vkyJwj2AB7wB/Ja2BL86z1xwKbR6Y/3FRgqyVzbmArbdfAluZZ648JNiDDH+5CBduVkRd5K6+BbV7trPXHBhswcW6BXLDlvMeFUkbJfihlVI6LTW6dWu0a2NI8a/0pwAaMlFtA45WsbJo2klv+W8YfciLVtJBzjK5Vo91UYNN82qz9cdtIXoc0jy9nyCwF292rvp7vcWY5eG4BjTf1NvLTgsNWLdUvqf21M7YPAw+BOYONx/qXan9N5Z/Tj0c3sUYO2Hi8/5i51pAr2/Pe457E+FP9DJpbQONNDTYimXlU0scClBRd61rnOok1PvJetfr/oGBiSt4UYAM2XgA8sYZmjDzkiqjVkWAbY2WruUsYNbfAEGDLkcf5oXc2Sqph7StU5wPvzYfaId5UYNPq1wRNzXbW+nMAGzBwbgHiUUiEGi42tW8iJbK3gG3MSTd3sPHc2txkS9pGHk/sJGL52bgf20nlXU2zHCEiCxIZFuEl8QCU5loviPHfkxg/J8u97xVEyNIRdxzNTWAf45WCTdIn3q8VJg1s9vET0MinjepxfzZuF0ntOMBS+dlS720vr/rRwo8T0KRt5J0r0ywAazMt3u5u5/DCSu49znUUJD/u4V3gMXBuAemlzeP+T7myhewipWLkvHga5owxRHMBW63xy8yjNWWn2lnqaxG2UrKGGAddFwURyumotswa28hPFCDRdpJ4sZRRNSfPlGAjxYg1ZZR1bJY6xIvlZxtjnsgtZe1xyOvBcgtYf7ChZJbcfA6284lVOCZrF8BGJLWRJTJz23He2PnZJMl3tprj0K4HyS1An2kLSXSp8M4ukWkZY6gdV5DEKAS2nBvMw9nNFWzE4+dsfb93jDR3G9kulp/N0k/fh0VMScLf30rvyZZ7ztcBf7iUkNQkIND1AVssj3aIpOr/aqGF5PJpVQuNRzvcJpV/LEjr3MHGKRT0h4gH/OF+bDInG4BOTjZgbzWjLSStbLH8bFoCRK6N1MIj0Dub9GMDtrePtLLdLWQ8L343DrLnvMePncOzBm176H53ADfENnKs7UGsXQhsXFFSY2XL4c0JbGN+75x21vq15knfcaTqVMstMGewAV27SKqn5WdL9dfANk47a/1dARsQeYfLETJ3sM1h8jSw5bWz1t8lsAEGwM0JbJqlfynYrs18AdZ4DWzDtLPW3zWwAT1zC4y9sn3mfSentmaErJ2zcVkENpkuikimi9JkNbAN085afxfBBvTILTA22GJ8ro0kK5IU2DQFibT4D42hga2sHfdpy/0O3DaSl5M28kXld5Oy+t7Le1d9PdPj7K4ot8CUYPvMcI4WA1vIzSYFtjHys0ne2GDjsf6lQbJ2DJDbH8X7LwFbLN6/RVaNe/mM97iv4FWEl2WHWJjTyma77Zt6/JyNfNiIUivb0PnZJG9KsHlsQMYTa9QI0hojyz2RYBtjZdN4pTKzQixMCTauMPl0NQnIcoS3+9j79dnax8qE99gcYmuZR2t5aufkZ5O8qcGWK7tPO2v9mg/lqcAGZChN+oCN8rJ94csj1lJYhKtWWxINbEQfK5OHK0i0iMgENJ7JZhecR4cEW6w/siA55X3HmoTLkZYkkmL52bgfG72rcX82bjnyovgOPP4IN9d6TjwApbuNtCK5NzF+3qelzKQ06Qs2Cv6TG/Anxud+bBqdFzeOxx+JxfkHsBUaIRcAsfJdAlvqOxLQpE8b92ejWCRcFgdYKj8bKUjuFO9t9EmabHFJBDTu0+axBzACHf9Mbe9lplv3OtdRkPxE8b0LkVaWVJrUApvHJtXv577bumR7QKCTViTSr0224ymjKF0U1ePKEcsTPzXGGH8uW58+WyaZedTazkKlD2UJvNQ4at+TWP2o0qQP2Kz1rf1Y5V7DNJE57WpM1l0DG3lt10gZlQssql8jP1ufdpoH91BgAyJKkyHAVuOJRUQrGylJ6H8KbEA346i8Lp10Gs0VbMST2sgh+9PKxs7PJkm+sw0JNiAj1HlJR7SFpPIrxHayL9iIrGAj3ofer/+AvXc2+kuNxzrGnPxsqb5y6peARp6zxajPhNTcbWT9UBL7VLvSFVby7ov0L9/frDI5bbnn/C3intNnIhDohgAbva+d936tiZRxI7ks7Z2NayO1czZgnPxsU4CNX2vnbFIDScRDI3AlCVEoJxttIS352e5U7ivXRkpfNmDzzqZpJvn2kStGOD0jvj8H2R+9x/3O4Y8FRz10vQW4L1cOqBZh1o6G2h5woMk62jkbUSiBPadddB4dejs49FZrrG3kFN+NXw8aRGjImxg61AbimUenSmCf21dO/Qa2OuMYQ2bUPWfON3HKSdfAluZZ6+8nsAEVcwtMBTYt1r9VVkl/PzJsSd9WtqQNbF3efgMbUCm3wJQrW0ou52kW/yF6LwIaaR/Jr25WrB4a2Lq8/Qg2jwq5BaYEW247zTaStJIl380yhga2DY9U/pp7Ter+arnZgI02UtpIxsaRW4fo/lVfT/U4uxs0iNCcwNannSzXjgE02jWwcbtIqfbXVP4axfqRiTVibTj/bmYPKW0jS8aRU4fTU97jgYSRREpmcW6BCwVsGsXG+E6PI4NdARuwiSHJE2tMlQyRkwTbGCtbTZmDBBHaFbCVfLfSdrsEtlC7GE09T3LqTymzehAhjUfOo58aV4cQT15TWARuPWJpZ+GVbiM5vTny1mdIsEkez62t5Wmj+iFTLSqP5WfjliTau5qMiszHyOOPcHOtp8V3leZa0orkfsMWOOf3qRpEKAQ27jwayjya4pVsB62yJU8rf0f8oDevbCXn8jQeE2zABmjSpy0Vf+RO57bAFsvPJt/b5Di4yZYse9Z73Osc7mM+bR57ACPQ/UQx0+KmW/c711GQpN7hUjyz8XJfsAG60+jUk07yLNucCwFspWOSJB1IS6nPvYzJk7aRJeMJ8Up+nypBhGr+mNYvxbeRtK0cw1ObztluVrYaRG8GjhlyxjbGQ4YUI6GUUTGqNU8s+dn6jCNVx7JlzJUZ4nW2lDXBVtJu7isbgOTKdkDZ3uSObczvLbWRsXZWmTnzZOz8bJInt5RDzy+zLWUJ2D71fisyciw/W86Xki42wN6h9g2ByV4LbNZ2IZob2OhanrP1neSh8thqRnXuGXAcKfKIv6P9tNA7nX/ecs/5grnn1FzZ6L1tKLDxOjn+bCmSPm2We3LQObwxom1nzXbaOZumgQS2/di4koQolKeNQGfJz6aFP+DaSC2iFr2zaZpJ6dsGdLeUT4m5w0H2pPd40Dk8mbEqy3IVcDXBlmpnnTw5cSMpEvJ7iYlfc2U7sOpzV8EW4lnrDz1PcupPKTP13bKDCE0BNgBZ52xT2EZqQLPIs9aZop21fgNblxfqc+sdbq5gq92uNthCNLfvndPOWr+BrcuL9VmUzCOno6EnT+idLdSu+bOledb6DWxdXqxPoOAcLqejOUwebYzNny3Ms9ZvYOvyUmADIlvKlJBdBVuNdg1sdnmcf7dzW2r/nHHc6xzuVY597nOud/hx6/16yDk8FDi2sIANKDBetnQ0h8kTG2OJP9sBpQ0pSg4qZecM2tQc3hhg43aRUu2vqfxT8uRvIBNr5IDt2ZUiTNpGxtpZynLu1++9XwOuBGxAQUyTuYFNo9gYS/3ZyFxLO2d7w3scdG4NMgA45BxeLzQMnhpswCaGJE+soRkjj72NlGB7OvH+njOGmjunEGXFNJkb2IZa2YCNa02sr1jZ697jMAPdXO8XoGexKelT49cAW5+xWOvnyrSUa/XNMU36gM0SETnGC9WhrKP03/LksUREltvHKZ6cY7QDwmBL3UueW5ubbEnbSPnOJimWn41bkpDlCF/RNMsRIh5/hJtrPSXmiTTXelI8IB8KjL8EbIAxpklfsFEC++uciwZp1XhDL/NDbX1yZe4S2Dw2QOM+bR7b/mw8/giVc4Cl8rNxM61nFGOGp1c8zeKfwpI/IHzaHnAOf1hd/1SYaQHAg87h9yveQ+wz1fpZwjhdI14/K8RCH7AB23m1x17mQ7JuyRiPRV6K5gK2EOXeX5l5tGQcQ3w3KpO2kSVU2k5r2yvl8JSTh28jY/m0LbJqTJDcPkO8scDmsVGMWFNGxWSVllvys+XKzLlfDya2vKX3JFS/OOVwjadpqF3N/mLtbnGuoxwpoV3aRsoyqY3MldfnwQWMn59NXst3thy5JfWTIRb6TAK+hQQ2QX9S7VKyf+gc3hUT5B3vO1pI2Y47j3KwHXBurSjxqGOIfMQ5nM3QUE4BNiJ+zlbzwSaJr2ahfu4z1MkZQ+7YY+dsDxec30racs/5TOSHqzUJCHRDgY3TTautZUgWvbNpK1vMxUY73CaV/2GlbFfAxnmhoD9EPOAP10xac7I95/362pKfTUuAyLWRmrKE3tm4ZpIrSYhoZZNbyt+LufMzVv477/Gwc/hdZFeUuv9bgPs04ICawxuqHTmQxsBGRCsdPwIgG8m3DK478nB7DqAZGmxjbSOn+G45MlPfLUaWMfbyFhhz8ljP2Tx0T+23MlacBrYGtiHABijvcHOdPFaw5bab4scco521fgNblzcU2IBCb4EGtjyZDWxp3lx+nyHBBhRkQJ0D2FLayJuFNYClr4OZ2rFQnaOJsR0znjs1sI0jc0ywAT1CnVvr1GqXs7KV9JVTv8/3Pu09jju3/h+jVzPeO3PG0sDW5Y0BNqCH0mQqsJHa/ybnTIbIRNIgmVxqOPFr6c8mVf9nKyhWTkXGT/nZLiSw8QQbuTJDyRBJ/f+HTJklYKNzuN/2OBYoCrEwh5Xtbe/XMf6BvW3kWxEQ8PDjBCyujeT+bIcCk51AdmRVfiSwQtG28jUxCWhlO204mtCuQzxr/VQ5N0SW52z3iOuScfBMNrlg4+drTwXANfTKRudwIbLck6xQ59Y6tdrJcnmoLUEXIw42bXUDNkCjz9KBVNIZpfyoc2ugad+BeCcCP5zMZiPb5ZSVgs1jz82GZx4l0JWCLbdOiCTYxljZLPWtZVkhFuYENqLSLDZviB/qkFjhXjeAJsVL1TklxjDVNlKCLUZ9wTaEzF0BG5ChNOkz6SgS8vvGp5FWrtlKAohuIyVPWpDIVe6QIp+317aQR53DGeVBYP1B57SNzJmQZKLFzbWAbWNkj23bSI1iCRG56ZZ8VwN0Uy3ql2wieRwSAHhC/FZyiyjNtlL2k7m/jUlp0hdsBLQbVy41sXahL8C3kUSxlFEhWQSyc95nxyA5u/qxuOr/jPfmbaSk0LYy1c7aT02wSR4B7cfOdby0YwF/OMBiCRE90Hlvk2PQ7CGpDgHtIefwBOvjZ8wWUrOLfFiUSwXJI4njo1RZUmlSC2wAtsIhaO1SYAvxcreRBDq5onFN5NnEgyHGs9Z5VdyHk2I8Q4KtRjug616j1a+9aufIfCLxICyl0i1mVGnSB2y57WqCLUQyshZX/acC/sTGJrWRobGGeLkToRbYKEzCC5njz6GUTM3iv69MaxsgvGUsBVSqrNfBt8YbA2yai40lgf0579fKEe19LXTWRjKPRrYTJd/71ko/dp+VTWojrZhC974AAAvoSURBVFQLnH9MrEClDyfrQ1lztSl9yFh+t0G9Bd73fuu9LSe6Vmzw3MXmgHMmsMmyc2Ich51LbiPpGCBlvpUaC4Bgmt8ptpFc5V9jHKE6mn+brD/lORugv7cRPWIYf6qsOLeA9WbQexuQ52IT45VOVL66pc7YpMwzbBKUKEhKJ4+1finY6LN2ziY1kFoyxHuZYoQ0kvc5h6e9x9Ped0LZ3e/cWjFC15w42LgWkj5zbSRXlpAmkt7ZyHFUKkE4TzvI5mD7rfdbIPuN9/i3hCY7VbblgPoRc0CNCZtiG0l0i/KFtZDjsXM2D91LW5I82I59b24XKU226CqWwJ54POPoy+I7hPruCzZLO2v9KWX2Wdlyx1halp1bYEqwecQjIsvQCPxK2kbWjohsMdeybCNlyt8Gtvx2cwUbEHHPmSPYLG1y6g+9HZz7NrLWOKaWuStgAwxRu0K8qcDGo2txsvqzHQ60t/Lk9XGnR+JtYBtH5i6BzWNEb4GhVzYtg02oPr8OWfzvsrlWjXbW+g1seWWjeAvUAtsBZgsZsvrn52tc9c+VJAQyOgaQypGjyqrVtpH9v5vm02aVyW0jeT3SRsZC1+WMMVZGGspfZ57d8bLBvQVqrmwhekNZjQ4J0FD6KO2sTZ6rxcaVw+PX0mwL2ChIblPKrOHHa4KNkmt4bMeLfNb7rWstsUZsLFQmM9nkgI0n2HgiA1y5Y4yV/dp7PNrzWGBQb4GaYKN3N8151HL7Q33mqP5zePL6ldUkvc25jibyZe87mWzGDj/OwQZsQEaGyOQ8Wgq2FM8qU9pGjrGy1SwbzFugJtg8ut7ZnDQzLdmeQo/Tf4/0yna60IC5xoSk8ON/ypzgNcAWqz8l2Ep3QKn6Y5YN4i0gy7VIyJZ2Go/7tFHZuchKwK9laARyrZEKkmPOmcB2YnWQTQfa1u+QKptqG5lDZEEirUWkbeQDiYealhCRJHA/Nm5JQuXcSiTkxyatSWLuNsCeNQkfv7aFpLIQxcqqewtoYCNPbRkOoQbYgPAKx9/XeDwSTUmSoj7b1lr1Y+Vjr2xktkVmWkTcn00mQ/TommvFEiJq7228tjTZgih72LmObeQj7PoR57YABuwpRn6zGv+jznUUJI8GjoH4d4xRr4NvyYuBDdjEIEm103i0jTzoHA4619FGAhvrkZCdZOhmvOb9+m/KbeSYK1tO/Vgd6UBaQ2aIl7sKA+EIW31A06ddNW8By2SwttN4sZUt98eUUbW04KwpWXwb+Yr3OOkcXjEqckpWsSHAxhUjofolq3CqPr+OJUTsAzbr/deMkfvKjFEVb4GaT4ScL0WW/3TGRv/lYbZHNywCl/WauD4eALLGqz0hx17ZpDYyRbW3yE8G+i2dU7lt5Ttbicyc/nrnFohNBr6FBLZjR/YB26HVlpJ4tIU8K/7zdme833Kx0WQfd24NNi0qMtXTrP5plau1jbzT7eVqG2MbKc/ZUu0tMjWSChKt3UMuHaa+dByWstg5288zz+A02nLPeV+459TaRvLcbBa5WlnMgoQfanP1fypupNxK0vvbceeKXWy0czZAP9ymc7Y7lLKxwMZ52jmb9Gcj4prJnCSItIWkle0h8d1lwB9JXBupKUu4QoTzPLa3j7SyyS2lpiQhetx7/Nw5PB6ZxykKAq4W2Czt+qwKmvUIV/vLdscY4EKyTwjAeWzCIVhcbAhczZ8tT+aUK1vNshgVKU3mAjZAj66lrWzEsQT8kWAD8hJrvKy0D9VvYOvyLlSweRQkZJwT2Ep+zDHaWes3sHV5FzLYgEylyRzAFvJnOxJQWEje0PnZbguMj3h3JMo1amCzj2OqshjxdmZvgTmALVaHm2nltAvlaJNBWi3jtNQnG8mXvMediTOgF8X7YgObrf5cwQYYvQXmAjauIOHaSE78vI1H1+IrG4GM3tVCChLev3Sv0TSRIQrdk5ci74V3GdTjuwY27tOWCzZuG8nrkzbytwbNYd+yX6z6+pXxt9dqJZUmcwFbjELaSH7NM49K2aEY/7J/7mID6Kp+YM+1BtjzaeMyaGV7KbF6psaRalcKDB7rXxoka8cAuQCmeP8lYIvF+7fIqlH2K+/XoEtRSGbU0mROYJNWJGd9HXcSmTIqZ0yaNvJ250zOo6Ht5FTbSJlYg0DGE2vUCNKaU67Vl2AbY2XLpVi7oLfAnMDmsa3+lwqSkLU/r8PzahPIUtlrXumxdbDcyxeF/Km2kVoWm74yS+9JiMYG1BBg88g4hwvxLRNE89K2yNOuNQsSa8AfencjoJ3yfu3TxtuFDJG1LaT01JZ9lzz5QzQ22GL98EjI3ABZ2kZKSxI5jlh+Nl4m39U4D4DqZgN0wyL8WqyI0lzrcTF+6xaSy4yVmYyXQ3wr2GTgH4s87TpmrqURd7Xhq1oo86hGvDcZg8Rj7z3tdgV02vgl765Av3Nd2Tj9wXv81Dk86Fwn/Dj3Y5MKEm6ulcrPRgoS7sPGKWSeBWyAJn3aHmWmWdxMi+jnzq2VIr9gn4lCALT+PsmoXSF+LtiA8lB2wObdTVr9A3vaSDLZIm9tru5PjV+aa51kgApRjS2TTIZ4t/EsMWcc1jqlMmXm0Vi7KbaRWoStEpml7WRZ9BwuJKz2lskyQSwrm3UstKWkraS2wuV8B6mNzLknqX6GBBtXjNSSGaJQ+dj52SRpHgA5lNtfr9wCUz6NPTYrGx0BSNca3o4rSF4V4JXKES2kHRA+BiidbKEtpUVurXsptZE1ZEpe7Hvk5merXSbf2XKopL/iEAuWG88DtXpsZ7DR6lt/zKMMZMDmXU3+53TK+w7QZK2Tzq3BFooVWUtB8oL367/n2Z+Faq9CWtooK+XMk1SC+lSdMYAYU5L8IvGaYimr5i0Q6oSDrg/YQhYkGlknJIGL/nOliLQk4UCbIkhrTv0Smdo5GylGiLTcbDJIK7CnGHnCd/Ov8cA+lvxsXAtJn7k2kitLSBNJ72x0LZUk9P9x79WDbK4kkeV03QfcW/5w7ywWs99GymtuPUI8rvaX7W4VKn9NtgSc5Z7wg+yQ8yjPpx2Sew+T81yFY5QQbwiZ1m2kdRxTlcWob39ZuQXm8mPyawk2QPdnI0qBDSjzZ7OYa6XA5tEFmXUc1jpDyWxgs5UF3+Fkxbn8mGO0s9bf9W1kLZkNbPYyk9JkLj/mGO2s9RvYurwGtnRZMiHjXH7MMdpZ6zewdXkNbLayaIiFufyYY7Sz1m9g6/Ia2OxlwRALc/kxx2hnrd/A1uU1sOWVFef4zq3fwFZnHFPLbGDrV5YdtaukfgNbnXFMLbOBrX9ZUajznPoNbHXGMbXMBrY6ZeZzOEtZA9sw45haZgNbvbIs4+VYWQPbMOOYWmYDW90ys9IkVtbANsw4ppbZwFa/zKQ0iZU1sA0zjqllNrANU5ZUmsTKGtiGGcfUMhvYhiuLKk1ighrYhhnH1DIb2IYtSwJuDqBpYBtHZgPb8GVrwPnFAgeXy6SgBrZhxjG1zAa2ccqKY5pY60zRzlq/ga3La2AbtqzYlrKBrc44ppbZwDZuWZEtZQNbnXFMLbOBbdwyQB4LLBY4lHiPa2CrM46pZTawjVsGAI8tl3m2lA1sdcYxtcwGtnHLOHUAd261yjWwDTOOqWU2sI1bRvTYcon/WCy6gDtoFNjAlj+OqWU2sI1bppG6pXx9scDh1btcA1udcUwts4Ft3DJOtLoBAcAdwjboUp00sKV5DWz9y2I013FysP0SkYPvQ8ZOGtjSvAa2/mUx2oVx/nL1P6qlPLtY4EjG1rKBrYGtgW1DtLrxNlHAHcY26GIdN7A1sDWwbYiD7THGT3oLHDZ03MDWwNbAprd5TPBs/nCLBY4GtpYNbA1sDWzb9NhyiX9fKUokrfPDpegssAbdaythDWwNbA1sG3pshQ8Cm1zdgAzAEZ0BcGy5xGkFwQ1s08lsYBu3TJJUkGhgAwoABwCvATi+QvPpjNWugW0YmQ1s45ZxolVNU5BoVAQ4YA90wB7wThlWuwa2YWQ2sI1bxokfalvABvQAHNFpACdWKD8VWO0a2IaR2cA2bhkRX9WAzaG2hf4fnysm2qAjnXYAAAAASUVORK5CYII=;" vertex="1" parent="1">
          <mxGeometry x="343.1" y="400" width="193.52" height="190" as="geometry" />
        </mxCell>
        <mxCell id="H78yyhmrJmABQ--HX3Pv-6" value="Relation" style="endArrow=open;html=1;endSize=12;startArrow=diamondThin;startSize=14;startFill=0;edgeStyle=orthogonalEdgeStyle;rounded=0;exitX=0.5;exitY=0;exitDx=0;exitDy=0;" edge="1" parent="1" source="H78yyhmrJmABQ--HX3Pv-2" target="H78yyhmrJmABQ--HX3Pv-1">
          <mxGeometry relative="1" as="geometry">
            <mxPoint x="330" y="400" as="sourcePoint" />
            <mxPoint x="490" y="400" as="targetPoint" />
          </mxGeometry>
        </mxCell>
        <mxCell id="H78yyhmrJmABQ--HX3Pv-7" value="n" style="edgeLabel;resizable=0;html=1;align=left;verticalAlign=top;" connectable="0" vertex="1" parent="H78yyhmrJmABQ--HX3Pv-6">
          <mxGeometry x="-1" relative="1" as="geometry">
            <mxPoint x="-10" y="-40" as="offset" />
          </mxGeometry>
        </mxCell>
        <mxCell id="H78yyhmrJmABQ--HX3Pv-8" value="1" style="edgeLabel;resizable=0;html=1;align=right;verticalAlign=top;" connectable="0" vertex="1" parent="H78yyhmrJmABQ--HX3Pv-6">
          <mxGeometry x="1" relative="1" as="geometry">
            <mxPoint y="10" as="offset" />
          </mxGeometry>
        </mxCell>
      </root>
    </mxGraphModel>
  </diagram>
</mxfile>
